Coordinates
version=1
nRows=26
nColumns=24
inDegrees=yes

Units are S.I. units (second, meters, Newtons, ...)
Angles are in degrees.

endheader
time	pelvis_tilt	pelvis_list	pelvis_rotation	pelvis_tx	pelvis_ty	pelvis_tz	hip_flexion_r	hip_adduction_r	hip_rotation_r	knee_angle_r	ankle_angle_r	subtalar_angle_r	mtp_angle_r	hip_flexion_l	hip_adduction_l	hip_rotation_l	knee_angle_l	ankle_angle_l	subtalar_angle_l	mtp_angle_l	lumbar_extension	lumbar_bending	lumbar_rotation
      1.39600000	      1.24144948	      5.86256740	     -5.40430614	      0.24638152	      1.01993252	      0.31587240	     13.54005484	     -6.97522313	      0.86230920	    -61.78064433	      0.71785066	    -14.12142752	      5.08402605	      4.75297040	     10.70006512	     -2.45289000	     -7.98095703	     -1.18511921	    -14.34867393	      6.02220377	     -5.69825230	     -7.94000305	      7.43537629
      1.40016667	      1.24710698	      5.74096765	     -5.23809303	      0.25131745	      1.02060747	      0.31575551	     13.97017547	     -6.79287485	      0.77506531	    -61.15769134	      0.95247933	    -13.98621378	      5.08262797	      4.25099118	     10.61314480	     -2.27683066	     -7.67642989	     -1.05599290	    -14.22051093	      5.99810838	     -5.77124043	     -7.82153512	      7.00530875
      1.40433333	      1.20207859	      5.60672379	     -5.07327925	      0.25625304	      1.02118204	      0.31566536	     14.44258891	     -6.58462825	      0.69363156	    -60.48918486	      1.19801029	    -13.90328531	      5.08565271	      3.81102344	     10.50051774	     -2.13855500	     -7.38402640	     -0.98003556	    -14.09308653	      5.98852500	     -5.77731403	     -7.66874522	      6.83680424
      1.40850000	      1.21762680	      5.49290924	     -4.89734803	      0.26116209	      1.02178050	      0.31554713	     14.84290051	     -6.42227797	      0.57961020	    -59.79109343	      1.41526496	    -13.75621195	      5.09065940	      3.30131020	     10.41620823	     -1.96730844	     -7.07638096	     -0.84632326	    -13.95590919	      5.96589858	     -5.86217271	     -7.55330958	      6.40824509
      1.41266667	      1.20381774	      5.37744013	     -4.71752140	      0.26607245	      1.02231601	      0.31544125	     15.26127645	     -6.25301095	      0.46638152	    -59.05094993	      1.62998043	    -13.63708849	      5.09791563	      2.82775687	     10.32266900	     -1.80676407	     -6.77497573	     -0.74672001	    -13.82206656	      5.94374878	     -5.90855648	     -7.42783884	      6.09554107
      1.41683333	      1.18490008	      5.26075994	     -4.53315184	      0.27097162	      1.02280157	      0.31534220	     15.67287130	     -6.08509099	      0.34373323	    -58.27255569	      1.82977134	    -13.51782448	      5.10736645	      2.36320882	     10.22315208	     -1.64636055	     -6.47793187	     -0.64318419	    -13.68519193	      5.92286036	     -5.95074198	     -7.30256013	      5.78391605
      1.42100000	      1.17135391	      5.15400216	     -4.34729897	      0.27585231	      1.02325074	      0.31524846	     16.07143717	     -5.93212444	      0.21484395	    -57.46390605	      2.02261566	    -13.39477671	      5.11917498	      1.89778508	     10.13133797	     -1.48966617	     -6.18427370	     -0.54258674	    -13.54422978	      5.90245291	     -6.00099844	     -7.19010416	      5.46636564
      1.42516667	      1.15389176	      5.04483030	     -4.15528809	      0.28074422	      1.02365841	      0.31514038	     16.45828325	     -5.78372756	      0.07181011	    -56.61667686	      2.19175138	    -13.28127914	      5.13090630	      1.43810557	     10.03407823	     -1.33242409	     -5.89389096	     -0.43375701	    -13.40829822	      5.88630549	     -6.03975446	     -7.06784143	      5.17186313
      1.42933333	      1.13100050	      4.94731053	     -3.96317660	      0.28560594	      1.02401303	      0.31505776	     16.84572840	     -5.64723220	     -0.06957620	    -55.74456365	      2.35923650	    -13.16953560	      5.14577456	      0.99088790	      9.94442413	     -1.17322517	     -5.60854428	     -0.33619687	    -13.26405133	      5.86818057	     -6.08445092	     -6.96825495	      4.82767808
      1.43350000	      1.10331187	      4.84540691	     -3.76639217	      0.29047662	      1.02432671	      0.31496104	     17.22241276	     -5.51395263	     -0.22867978	    -54.83450823	      2.49642876	    -13.06949572	      5.15945291	      0.55221743	      9.84699665	     -1.01928675	     -5.33028703	     -0.22445644	    -13.12980342	      5.85433947	     -6.11179305	     -6.85300454	      4.52956324
      1.43766667	      1.08759943	      4.75898602	     -3.57465357	      0.29532487	      1.02459708	      0.31488007	     17.58215415	     -5.39971463	     -0.38231218	    -53.90560081	      2.63092065	    -12.97132821	      5.17427223	      0.10490564	      9.76398063	     -0.86601033	     -5.05185189	     -0.12184682	    -12.98923365	      5.84102820	     -6.16027808	     -6.76342931	      4.20595460
      1.44183333	      1.06773868	      4.67000614	     -3.38164509	      0.30017016	      1.02482710	      0.31479860	     17.93324965	     -5.28729147	     -0.54516484	    -52.94430014	      2.74057596	    -12.88489810	      5.18862582	     -0.33275829	      9.67470555	     -0.71585260	     -4.78319516	     -0.01394908	    -12.85319987	      5.83008260	     -6.20133622	     -6.66672233	      3.90373705
      1.44600000	      1.01225335	      4.58456682	     -3.18838995	      0.30501919	      1.02497766	      0.31473036	     18.31077255	     -5.17670071	     -0.70650219	    -51.95463994	      2.84847271	    -12.79718613	      5.19699700	     -0.72114174	      9.58335735	     -0.58049664	     -4.53249143	      0.06388588	    -12.72306636	      5.82604997	     -6.19748074	     -6.57841672	      3.70979143
      1.45016667	      0.99001936	      4.52371589	     -3.00159172	      0.30984771	      1.02509280	      0.31467024	     18.65473008	     -5.10259420	     -0.87373196	    -50.96149958	      2.91043611	    -12.73445646	      5.21113971	     -1.14928476	      9.51901718	     -0.42610736	     -4.26773915	      0.20366239	    -12.58688044	      5.81826267	     -6.23889314	     -6.51439348	      3.28690642
      1.45433333	      0.95819092	      4.45851516	     -2.81745831	      0.31467246	      1.02517238	      0.31461734	     18.99295273	     -5.02404672	     -1.04052147	    -49.93352921	      2.97002394	    -12.67046835	      5.22456330	     -1.55928679	      9.44628469	     -0.28316318	     -4.01641908	      0.30952087	    -12.45874373	      5.81171137	     -6.26609314	     -6.44698832	      2.99425875
      1.45850000	      0.90325125	      4.40212869	     -2.63513627	      0.31950200	      1.02516854	      0.31457197	     19.34850473	     -4.95758277	     -1.21155602	    -48.88866675	      3.00630127	    -12.61411795	      5.23635973	     -1.93642569	      9.37986474	     -0.14467305	     -3.77986593	      0.42650481	    -12.33931153	      5.80743905	     -6.26387128	     -6.38723411	      2.71387572
      1.46266667	      0.84760458	      4.34230009	     -2.45866352	      0.32433193	      1.02513873	      0.31454087	     19.68967368	     -4.88881949	     -1.38315022	    -47.81172156	      3.03876405	    -12.54601094	      5.24165628	     -2.30521068	      9.30645852	     -0.02241395	     -3.55643951	      0.51725502	    -12.22028999	      5.80698948	     -6.25712980	     -6.32221911	      2.54759100
      1.46683333	      0.81390706	      4.30156143	     -2.29118125	      0.32915010	      1.02507069	      0.31452400	     20.00660140	     -4.84400747	     -1.55295353	    -46.73081513	      3.02508851	    -12.52900705	      5.25042472	     -2.70134098	      9.25377195	      0.11444529	     -3.32233925	      0.65984143	    -12.09674247	      5.80553976	     -6.28581584	     -6.28281105	      2.17317072
      1.47100000	      0.75660074	      4.26905439	     -2.13047150	      0.33396845	      1.02492624	      0.31451653	     20.34053546	     -4.80881764	     -1.72070288	    -45.63171982	      3.01423386	    -12.48477068	      5.25870637	     -3.06265455	      9.20741587	      0.23717531	     -3.10441165	      0.78350920	    -11.98226806	      5.80497647	     -6.27773502	     -6.25335962	      1.91324423
      1.47516667	      0.69828895	      4.23737960	     -1.97628964	      0.33880527	      1.02475194	      0.31452157	     20.66127784	     -4.77795699	     -1.89700062	    -44.50749836	      2.99655952	    -12.41860896	      5.26147151	     -3.41762174	      9.16020066	      0.34376594	     -2.89782720	      0.88577599	    -11.87315293	      5.80624387	     -6.26272270	     -6.22099313	      1.77328029
      1.47933333	      0.65358436	      4.21709776	     -1.83215770	      0.34363330	      1.02454201	      0.31455151	     20.96117460	     -4.75550404	     -2.05922468	    -43.37021069	      2.93402947	    -12.42405148	      5.26691088	     -3.78882449	      9.12413194	      0.46091145	     -2.68712346	      1.03408604	    -11.75630268	      5.80734306	     -6.27304775	     -6.20463244	      1.43461541
      1.48350000	      0.58166729	      4.19482590	     -1.69653024	      0.34848594	      1.02425986	      0.31458288	     21.28036787	     -4.73627758	     -2.23835130	    -42.21726564	      2.88818546	    -12.34777468	      5.26830272	     -4.12560663	      9.08481738	      0.55472360	     -2.48700613	      1.15063814	    -11.65760423	      5.80925340	     -6.24637203	     -6.18970221	      1.31814263
      1.48766667	      0.51596201	      4.18318806	     -1.56925038	      0.35334546	      1.02394650	      0.31463260	     21.58293458	     -4.72713128	     -2.41266374	    -41.04705321	      2.81179976	    -12.29982698	      5.26850940	     -4.46997183	      9.05625116	      0.65379599	     -2.28537764	      1.28628717	    -11.55303022	      5.81157244	     -6.22653300	     -6.18127305	      1.15118054
      1.49183333	      0.47606804	      4.17608620	     -1.44317654	      0.35819235	      1.02364106	      0.31470168	     21.83754468	     -4.71909761	     -2.57608793	    -39.84133255	      2.70534463	    -12.30524200	      5.27022262	     -4.82834863	      9.03055898	      0.75481921	     -2.11523076	      1.44354772	    -11.44216756	      5.81338052	     -6.22659353	     -6.16995239	      0.86406344
      1.49600000	      0.39508245	      4.17205630	     -1.33396257	      0.36307820	      1.02321669	      0.31478304	     22.13982433	     -4.71895744	     -2.76232469	    -38.64739725	      2.61865638	    -12.22711098	      5.27096571	     -5.15272534	      9.00840343	      0.83276284	     -1.92109889	      1.57736870	    -11.34870351	      5.81530237	     -6.18967419	     -6.18283393	      0.73928472
      1.50016667	      0.34738342	      4.18243059	     -1.22650161	      0.36792733	      1.02280689	      0.31489156	     22.39106172	     -4.72639887	     -2.92356937	    -37.42412511	      2.49648485	    -12.22478333	      5.27508686	     -5.49982680	      8.99973213	      0.92443000	     -1.75405674	      1.74701853	    -11.23684867	      5.81576848	     -6.19431903	     -6.20194709	      0.46959663
